<svg width="24" height="24" viewBox="0 0 24 24" fill="none" xmlns="http://www.w3.org/2000/svg">
<path fill="#42C2FF" fill-rule="evenodd" clip-rule="evenodd" d="M3 17C3 16.4477 3.44772 16 4 16H20C20.5523 16 21 16.4477 21 17C21 17.5523 20.5523 18 20 18H4C3.44772 18 3 17.5523 3 17Z"/>
<path fill="#42C2FF" fill-rule="evenodd" clip-rule="evenodd" d="M8.81153 7.4593C8.21022 8.29447 8 9.32669 8 10V17H6V10C6 9.00664 6.28978 7.53887 7.18847 6.2907C8.12386 4.99153 9.67408 4 12 4C14.3259 4 15.8761 4.99153 16.8115 6.2907C17.7102 7.53887 18 9.00664 18 10V17H16V10C16 9.32669 15.7898 8.29447 15.1885 7.4593C14.6239 6.67513 13.6741 6 12 6C10.3259 6 9.37614 6.67513 8.81153 7.4593Z"/>
<path fill="#42C2FF" fill-rule="evenodd" clip-rule="evenodd" d="M10 4C10 2.89543 10.8954 2 12 2C13.1046 2 14 2.89543 14 4C14 5.10457 13.1046 6 12 6C10.8954 6 10 5.10457 10 4Z"/>
<path fill="#42C2FF" fill-rule="evenodd" clip-rule="evenodd" d="M10 19H14V20C14 21.1046 13.1046 22 12 22C10.8954 22 10 21.1046 10 20V19Z"/>
</svg>
