<svg width="24" height="24" viewBox="0 0 24 24" fill="none" xmlns="http://www.w3.org/2000/svg">
<path fill-rule="evenodd" clip-rule="evenodd" d="M3 2C3.55228 2 4 2.44772 4 3V20H21C21.5523 20 22 20.4477 22 21C22 21.5523 21.5523 22 21 22H3C2.44772 22 2 21.5523 2 21V3C2 2.44772 2.44772 2 3 2Z" fill="#42C2FF"/>
<path fill-rule="evenodd" clip-rule="evenodd" d="M7 14C7.55228 14 8 14.4477 8 15V17C8 17.5523 7.55228 18 7 18C6.44772 18 6 17.5523 6 17V15C6 14.4477 6.44772 14 7 14Z" fill="#42C2FF"/>
<path fill-rule="evenodd" clip-rule="evenodd" d="M15 7C15.5523 7 16 7.44772 16 8V17C16 17.5523 15.5523 18 15 18C14.4477 18 14 17.5523 14 17V8C14 7.44772 14.4477 7 15 7Z" fill="#42C2FF"/>
<path fill-rule="evenodd" clip-rule="evenodd" d="M19 2C19.5523 2 20 2.44772 20 3V17C20 17.5523 19.5523 18 19 18C18.4477 18 18 17.5523 18 17V3C18 2.44772 18.4477 2 19 2Z" fill="#42C2FF"/>
<path fill-rule="evenodd" clip-rule="evenodd" d="M11 11C11.5523 11 12 11.4477 12 12V17C12 17.5523 11.5523 18 11 18C10.4477 18 10 17.5523 10 17V12C10 11.4477 10.4477 11 11 11Z" fill="#42C2FF"/>
</svg>
