<?xml version="1.0" standalone="no"?>
<!DOCTYPE svg PUBLIC "-//W3C//DTD SVG 20010904//EN"
 "http://www.w3.org/TR/2001/REC-SVG-20010904/DTD/svg10.dtd">
<svg version="1.0" xmlns="http://www.w3.org/2000/svg"
 width="1280.000000pt" height="1093.000000pt" viewBox="0 0 1280.000000 1093.000000"
 preserveAspectRatio="xMidYMid meet">
<metadata>
Created by potrace 1.15, written by Peter Selinger 2001-2017
</metadata>
<g transform="translate(0.000000,1093.000000) scale(0.100000,-0.100000)"
fill="#42C2FF" stroke="none">
<path d="M12420 10858 c-159 -229 -412 -478 -645 -635 -336 -226 -720 -366
-1130 -414 -119 -13 -414 -13 -540 1 -693 78 -1343 447 -1750 997 -32 43 -61
82 -65 86 -4 4 -26 -21 -50 -55 -389 -560 -1063 -950 -1775 -1028 -129 -14
-422 -14 -550 0 -684 75 -1336 451 -1748 1008 -34 45 -64 82 -67 82 -3 0 -26
-28 -50 -62 -197 -283 -477 -535 -792 -713 -422 -239 -907 -350 -1413 -323
-681 35 -1327 360 -1765 886 -41 50 -76 90 -77 89 -1 -1 7 -65 18 -142 56
-398 282 -2016 296 -2117 l16 -117 64 -51 c227 -185 543 -332 863 -404 415
-92 905 -100 1325 -21 537 102 1019 365 1334 730 47 55 106 128 130 163 24 34
47 62 52 62 4 0 24 -24 45 -52 198 -277 491 -521 819 -683 272 -134 528 -209
875 -257 143 -19 583 -16 739 6 724 101 1270 400 1643 901 33 44 63 78 66 75
4 -2 38 -45 77 -95 535 -692 1480 -1019 2515 -869 443 64 831 230 1137 488
l97 82 32 219 c18 121 82 567 143 990 61 424 127 874 145 1000 19 127 33 231
31 233 -1 1 -21 -26 -45 -60z"/>
<path d="M12620 6828 c-132 -189 -360 -427 -536 -559 -341 -256 -715 -414
-1144 -481 -194 -31 -538 -31 -730 0 -513 81 -974 302 -1346 643 -128 118
-246 250 -338 377 -21 28 -41 52 -44 52 -4 0 -13 -10 -21 -22 -76 -124 -271
-342 -415 -466 -522 -447 -1232 -669 -1908 -597 -604 64 -1133 323 -1564 766
-93 96 -227 257 -264 318 -9 14 -13 13 -28 -9 -198 -287 -483 -558 -757 -720
-773 -456 -1694 -492 -2471 -95 -293 150 -591 390 -788 633 -32 40 -60 71 -62
69 -2 -1 28 -228 67 -502 38 -275 112 -806 164 -1180 l95 -680 47 -43 c78 -71
259 -186 393 -251 214 -103 455 -173 755 -218 173 -26 717 -26 890 0 727 108
1283 423 1635 925 24 34 46 62 49 62 4 0 17 -17 31 -37 77 -114 261 -311 385
-413 386 -315 858 -501 1399 -551 174 -16 558 -6 721 19 303 47 545 121 790
241 347 171 619 397 814 678 l44 63 57 -78 c118 -161 275 -316 445 -442 331
-246 698 -392 1175 -467 94 -14 175 -18 435 -17 352 0 473 12 730 74 360 87
712 266 928 473 l65 62 10 85 c6 47 61 429 122 850 61 421 133 920 160 1110
27 190 52 355 55 368 3 12 4 22 2 22 -2 0 -23 -28 -47 -62z"/>
<path d="M12742 2978 c-339 -489 -893 -859 -1487 -992 -244 -54 -572 -73 -821
-46 -686 75 -1345 452 -1753 1004 -64 86 -66 88 -80 66 -123 -185 -346 -422
-532 -563 -229 -175 -559 -341 -837 -421 -117 -34 -315 -73 -436 -86 -126 -13
-425 -14 -542 0 -415 47 -796 188 -1139 421 -259 176 -429 341 -662 645 l-23
29 -17 -25 c-438 -620 -1069 -991 -1823 -1071 -146 -15 -434 -12 -578 6 -460
59 -900 246 -1258 535 -98 79 -303 284 -368 368 -27 34 -50 61 -51 60 -3 -3
31 -244 194 -1413 33 -231 76 -542 97 -692 l38 -271 59 -48 c317 -256 703
-404 1212 -465 148 -18 608 -18 745 0 735 94 1300 395 1670 889 l83 111 40
-57 c266 -376 690 -674 1180 -831 287 -91 520 -125 867 -125 266 0 346 7 578
50 612 114 1123 418 1450 864 30 41 58 79 62 83 4 5 25 -16 46 -45 479 -663
1341 -1020 2294 -949 585 43 1022 203 1394 511 53 45 99 86 101 93 2 7 57 377
121 822 64 446 142 990 174 1210 32 220 57 401 55 403 -1 1 -25 -30 -53 -70z"/>
</g>
</svg>
